<svg version="1.1" viewBox="0.0 0.0 96.0 96.0" fill="none" stroke="none" stroke-linecap="square" stroke-miterlimit="10" xmlns:xlink="http://www.w3.org/1999/xlink" xmlns="http://www.w3.org/2000/svg"><clipPath id="p.0"><path d="m0 0l96.0 0l0 96.0l-96.0 0l0 -96.0z" clip-rule="nonzero"/></clipPath><g clip-path="url(#p.0)"><path fill="#000000" fill-opacity="0.0" d="m0 0l96.0 0l0 96.0l-96.0 0z" fill-rule="evenodd"/><g filter="url(#shadowFilter-p.1)"><use xlink:href="#p.1" transform=""/></g><defs><filter id="shadowFilter-p.1" filterUnits="userSpaceOnUse"><feGaussianBlur in="SourceAlpha" stdDeviation="5.0" result="blur"/><feComponentTransfer in="blur" color-interpolation-filters="sRGB"><feFuncR type="linear" slope="0" intercept="0.5568628"/><feFuncG type="linear" slope="0" intercept="0.4862745"/><feFuncB type="linear" slope="0" intercept="0.7647059"/><feFuncA type="linear" slope="1.0" intercept="0"/></feComponentTransfer></filter></defs><g id="p.1"><path fill="#ffffff" d="m48.998184 45.113247l0 2.279667l29.91069 3.0899048E-4l0 -2.279663zm0 5.017742l0 2.279667l29.91069 3.0899048E-4l0 -2.279667zm0 5.0301323l0 2.279667l29.91069 3.0899048E-4l0 -2.279667zm-0.16107559 -28.855114c-4.510147 -4.5776367E-5 -8.392506 0.9786835 -11.647079 2.9361877c-3.246315 1.9492455 -5.7326775 4.5634003 -7.4590893 7.8424683c-1.7264118 3.2708054 -2.5896168 6.909176 -2.5896168 10.915108c0 3.9563751 0.86320496 7.586506 2.5896168 10.890385c1.7264118 3.2956238 4.2127743 5.922222 7.4590893 7.879795c3.2545738 1.9493103 7.1369324 2.9239883 11.647079 2.924034c4.2127724 4.5776367E-5 7.8927536 -0.8754349 11.039944 -2.6264572c3.14719 -1.7510147 5.6087723 -4.096733 7.3847427 -7.0371475l-2.8869858 -3.0517578E-5c-1.5777245 2.1805305 -3.6882439 3.9439507 -6.3315506 5.290245c-2.6350517 1.3462906 -5.703766 2.0194244 -9.20615 2.0193863c-4.055828 -3.8146973E-5 -7.545822 -0.8755951 -10.469982 -2.6266785c-2.9159012 -1.7510757 -5.1338005 -4.0844536 -6.6537037 -7.000126c-1.5199032 -2.923935 -2.2798538 -6.161728 -2.2798538 -9.713379c0 -3.5516548 0.75995064 -6.785301 2.2798538 -9.700947c1.5199032 -2.9239006 3.7378025 -5.257229 6.6537037 -6.9999886c2.92416 -1.7510185 6.414154 -2.626505 10.469982 -2.626463c3.9071388 4.005432E-5 7.2814903 0.82604027 10.123047 2.4780025c2.8498192 1.6437035 5.0346794 3.8366623 6.554577 6.578884l1.9824829 -1.3008766c-1.7264099 -3.0395699 -4.175598 -5.484453 -7.3475723 -7.33465c-3.1719704 -1.8584557 -6.942814 -2.7877064 -11.312534 -2.7877522zm0 -5.0177402c-4.055828 -4.196167E-5 -7.723419 0.6854706 -11.002773 2.0565395c-3.2710953 1.3628101 -6.0878716 3.2748928 -8.450329 5.736244c-2.3541985 2.4613552 -4.154953 5.3067894 -5.4022636 8.536301c-1.2390499 3.2212524 -1.8585758 6.682041 -1.8585758 10.38237c0 3.7085838 0.6195259 7.173519 1.8585758 10.394798c1.2473106 3.2212791 3.0480652 6.050228 5.4022636 8.486851c2.3624573 2.4366226 5.1792336 4.35289 8.450329 5.74881c3.279354 1.3959122 6.946945 2.093895 11.002773 2.0939407c5.7409363 5.340576E-5 10.688881 -1.3586044 14.84383 -4.075989c4.1632156 -2.7173843 7.2608414 -6.2566147 9.292885 -10.617695l-2.5896149 -2.670288E-5c-1.9246597 3.700306 -4.74144 6.682007 -8.450329 8.945122c-3.700634 2.2548447 -8.066223 3.382248 -13.096771 3.3821945c-4.972725 -5.340576E-5 -9.301144 -1.0903702 -12.985256 -3.270958c-3.67585 -2.1805878 -6.505018 -5.1210594 -8.487499 -8.8214035c-1.9742222 -3.7086067 -2.9613323 -7.7971497 -2.9613323 -12.265621c0 -4.518032 0.98711014 -8.614815 2.9613323 -12.29034c1.982481 -3.6837845 4.8116493 -6.6159325 8.487499 -8.796446c3.6841125 -2.1805115 8.012531 -3.2707405 12.985256 -3.270689c4.8240395 4.9591064E-5 9.012032 1.0284195 12.563976 3.0851116c3.5519485 2.0566902 6.3439407 4.782406 8.375984 8.177145l1.9824829 -1.2884827c-2.180725 -3.7086105 -5.241188 -6.690378 -9.181366 -8.945305c-3.931923 -2.2549267 -8.512283 -3.3824177 -13.741077 -3.382471zm0 -5.0301323c-4.7662163 -4.9591064E-5 -9.090504 0.8258724 -12.972866 2.4777622c-3.8823605 1.6436329 -7.2195377 3.9150028 -10.011532 6.8141136c-2.791996 2.890852 -4.952076 6.252512 -6.480238 10.084976c-1.5199032 3.8324623 -2.2798538 7.9540253 -2.2798538 12.364681c0 4.4189186 0.75995064 8.5446205 2.2798538 12.377121c1.528162 3.8242378 3.688242 7.18594 6.480238 10.08511c2.791996 2.8909073 6.1291733 5.1623535 10.011532 6.814316c3.8823624 1.6437149 8.20665 2.465599 12.972866 2.4656448c4.8240395 5.340576E-5 9.189629 -0.83412933 13.096771 -2.5025406c3.9071388 -1.6766739 7.2691 -3.9976044 10.085873 -6.962784c2.81678 -2.9734497 4.960335 -6.388794 6.4306793 -10.24604l-2.502884 -2.670288E-5c-1.420784 3.4029617 -3.4280472 6.4218407 -6.0217896 9.056652c-2.5854874 2.6348038 -5.6542053 4.6914215 -9.20615 6.1698685c-3.5519447 1.4701767 -7.512779 2.2052536 -11.8825 2.2052078c-4.4605827 -4.5776367E-5 -8.495762 -0.75997925 -12.10553 -2.2797928c-3.601509 -1.5280762 -6.6950054 -3.6343231 -9.280493 -6.318733c-2.5854855 -2.6926804 -4.576227 -5.827236 -5.972225 -9.403683c-1.3959999 -3.5764465 -2.093998 -7.3965454 -2.093998 -11.460297c0 -4.0554886 0.69799805 -7.8714447 2.093998 -11.447861c1.3959961 -3.5846748 3.3867378 -6.7191963 5.972225 -9.403559c2.5854855 -2.6926212 5.6789837 -4.7988014 9.280493 -6.3185406c3.609768 -1.5279999 7.644947 -2.291977 12.10553 -2.2919312c5.7409363 5.9127808E-5 10.754963 1.2431908 15.04208 3.729391c4.287117 2.4862003 7.6490784 5.785969 10.085876 9.899305l1.9824829 -1.2884884c-2.6433105 -4.4189434 -6.2985153 -7.9582424 -10.965607 -10.617903c-4.6670876 -2.6679173 -10.048702 -4.0019073 -16.144833 -4.0019703z" fill-rule="evenodd"/><path stroke="#d9d2e9" stroke-width="1.0" stroke-linejoin="round" stroke-linecap="butt" d="m48.998184 45.113247l0 2.279667l29.91069 3.0899048E-4l0 -2.279663zm0 5.017742l0 2.279667l29.91069 3.0899048E-4l0 -2.279667zm0 5.0301323l0 2.279667l29.91069 3.0899048E-4l0 -2.279667zm-0.16107559 -28.855114c-4.510147 -4.5776367E-5 -8.392506 0.9786835 -11.647079 2.9361877c-3.246315 1.9492455 -5.7326775 4.5634003 -7.4590893 7.8424683c-1.7264118 3.2708054 -2.5896168 6.909176 -2.5896168 10.915108c0 3.9563751 0.86320496 7.586506 2.5896168 10.890385c1.7264118 3.2956238 4.2127743 5.922222 7.4590893 7.879795c3.2545738 1.9493103 7.1369324 2.9239883 11.647079 2.924034c4.2127724 4.5776367E-5 7.8927536 -0.8754349 11.039944 -2.6264572c3.14719 -1.7510147 5.6087723 -4.096733 7.3847427 -7.0371475l-2.8869858 -3.0517578E-5c-1.5777245 2.1805305 -3.6882439 3.9439507 -6.3315506 5.290245c-2.6350517 1.3462906 -5.703766 2.0194244 -9.20615 2.0193863c-4.055828 -3.8146973E-5 -7.545822 -0.8755951 -10.469982 -2.6266785c-2.9159012 -1.7510757 -5.1338005 -4.0844536 -6.6537037 -7.000126c-1.5199032 -2.923935 -2.2798538 -6.161728 -2.2798538 -9.713379c0 -3.5516548 0.75995064 -6.785301 2.2798538 -9.700947c1.5199032 -2.9239006 3.7378025 -5.257229 6.6537037 -6.9999886c2.92416 -1.7510185 6.414154 -2.626505 10.469982 -2.626463c3.9071388 4.005432E-5 7.2814903 0.82604027 10.123047 2.4780025c2.8498192 1.6437035 5.0346794 3.8366623 6.554577 6.578884l1.9824829 -1.3008766c-1.7264099 -3.0395699 -4.175598 -5.484453 -7.3475723 -7.33465c-3.1719704 -1.8584557 -6.942814 -2.7877064 -11.312534 -2.7877522zm0 -5.0177402c-4.055828 -4.196167E-5 -7.723419 0.6854706 -11.002773 2.0565395c-3.2710953 1.3628101 -6.0878716 3.2748928 -8.450329 5.736244c-2.3541985 2.4613552 -4.154953 5.3067894 -5.4022636 8.536301c-1.2390499 3.2212524 -1.8585758 6.682041 -1.8585758 10.38237c0 3.7085838 0.6195259 7.173519 1.8585758 10.394798c1.2473106 3.2212791 3.0480652 6.050228 5.4022636 8.486851c2.3624573 2.4366226 5.1792336 4.35289 8.450329 5.74881c3.279354 1.3959122 6.946945 2.093895 11.002773 2.0939407c5.7409363 5.340576E-5 10.688881 -1.3586044 14.84383 -4.075989c4.1632156 -2.7173843 7.2608414 -6.2566147 9.292885 -10.617695l-2.5896149 -2.670288E-5c-1.9246597 3.700306 -4.74144 6.682007 -8.450329 8.945122c-3.700634 2.2548447 -8.066223 3.382248 -13.096771 3.3821945c-4.972725 -5.340576E-5 -9.301144 -1.0903702 -12.985256 -3.270958c-3.67585 -2.1805878 -6.505018 -5.1210594 -8.487499 -8.8214035c-1.9742222 -3.7086067 -2.9613323 -7.7971497 -2.9613323 -12.265621c0 -4.518032 0.98711014 -8.614815 2.9613323 -12.29034c1.982481 -3.6837845 4.8116493 -6.6159325 8.487499 -8.796446c3.6841125 -2.1805115 8.012531 -3.2707405 12.985256 -3.270689c4.8240395 4.9591064E-5 9.012032 1.0284195 12.563976 3.0851116c3.5519485 2.0566902 6.3439407 4.782406 8.375984 8.177145l1.9824829 -1.2884827c-2.180725 -3.7086105 -5.241188 -6.690378 -9.181366 -8.945305c-3.931923 -2.2549267 -8.512283 -3.3824177 -13.741077 -3.382471zm0 -5.0301323c-4.7662163 -4.9591064E-5 -9.090504 0.8258724 -12.972866 2.4777622c-3.8823605 1.6436329 -7.2195377 3.9150028 -10.011532 6.8141136c-2.791996 2.890852 -4.952076 6.252512 -6.480238 10.084976c-1.5199032 3.8324623 -2.2798538 7.9540253 -2.2798538 12.364681c0 4.4189186 0.75995064 8.5446205 2.2798538 12.377121c1.528162 3.8242378 3.688242 7.18594 6.480238 10.08511c2.791996 2.8909073 6.1291733 5.1623535 10.011532 6.814316c3.8823624 1.6437149 8.20665 2.465599 12.972866 2.4656448c4.8240395 5.340576E-5 9.189629 -0.83412933 13.096771 -2.5025406c3.9071388 -1.6766739 7.2691 -3.9976044 10.085873 -6.962784c2.81678 -2.9734497 4.960335 -6.388794 6.4306793 -10.24604l-2.502884 -2.670288E-5c-1.420784 3.4029617 -3.4280472 6.4218407 -6.0217896 9.056652c-2.5854874 2.6348038 -5.6542053 4.6914215 -9.20615 6.1698685c-3.5519447 1.4701767 -7.512779 2.2052536 -11.8825 2.2052078c-4.4605827 -4.5776367E-5 -8.495762 -0.75997925 -12.10553 -2.2797928c-3.601509 -1.5280762 -6.6950054 -3.6343231 -9.280493 -6.318733c-2.5854855 -2.6926804 -4.576227 -5.827236 -5.972225 -9.403683c-1.3959999 -3.5764465 -2.093998 -7.3965454 -2.093998 -11.460297c0 -4.0554886 0.69799805 -7.8714447 2.093998 -11.447861c1.3959961 -3.5846748 3.3867378 -6.7191963 5.972225 -9.403559c2.5854855 -2.6926212 5.6789837 -4.7988014 9.280493 -6.3185406c3.609768 -1.5279999 7.644947 -2.291977 12.10553 -2.2919312c5.7409363 5.9127808E-5 10.754963 1.2431908 15.04208 3.729391c4.287117 2.4862003 7.6490784 5.785969 10.085876 9.899305l1.9824829 -1.2884884c-2.6433105 -4.4189434 -6.2985153 -7.9582424 -10.965607 -10.617903c-4.6670876 -2.6679173 -10.048702 -4.0019073 -16.144833 -4.0019703z" fill-rule="evenodd"/></g></g></svg>